<?xml version="1.0" encoding="utf-8"?>
<svg version="1.1" xmlns:xlink="http://www.w3.org/1999/xlink" width="16px" height="16px" xmlns="http://www.w3.org/2000/svg">
  <g transform="matrix(1 0 0 1 -259 -248 )">
    <path d="M 16 8  C 16 12.4183999965481  12.4183999965481 16  8 16  C 3.58160000345187 16  0 12.4183999965481  0 8  C 0 3.58160000345187  3.58160000345187 0  8 0  C 12.4183999965481 0  16 3.58160000345187  16 8  Z M 8 14.39999998875  C 11.5346223927039 14.39999998875  14.39999998875 11.5346223927039  14.39999998875 8  C 14.39999998875 4.46537760729613  11.5346223927039 1.60000001125  8 1.60000001125  C 4.46537760729613 1.60000001125  1.60000001125 4.46537760729613  1.60000001125 8  C 1.60000001125 11.5346223927039  4.46537760729613 14.39999998875  8 14.39999998875  Z M 7.199999994375 8.800000005625  L 4.000000009375 7.6000000065625  L 11.20000000375 4.79999999625  L 8.3999999934375 12.0016000031237  L 7.199999994375 8.800000005625  Z " fill-rule="nonzero" fill="#006eff" stroke="none" transform="matrix(1 0 0 1 259 248 )" />
  </g>
</svg>