<?xml version="1.0" encoding="utf-8"?>
<svg version="1.1" xmlns:xlink="http://www.w3.org/1999/xlink" width="46px" height="46px" xmlns="http://www.w3.org/2000/svg">
  <g transform="matrix(1 0 0 1 -165 -104 )">
    <path d="M 46 23  C 46 35.7029  35.7029 46  23 46  C 10.2971 46  0 35.7029  0 23  C 0 10.2971  10.2971 0  23 0  C 35.7029 0  46 10.2971  46 23  Z M 23 41.4  C 33.1620393968866 41.4  41.4 33.1620393968866  41.4 23  C 41.4 12.8379606031134  33.1620393968866 4.60000000000002  23 4.60000000000002  C 12.8379606031134 4.60000000000002  4.6 12.8379606031134  4.6 23  C 4.6 33.1620393968866  12.8379606031134 41.4  23 41.4  Z M 16.4956 13.2411  L 23 19.7478  L 29.5044 13.2411  L 32.7589 16.4956  L 26.2522 23  L 32.7589 29.5044  L 29.5044 32.7589  L 23 26.2522  L 16.4956 32.7589  L 13.2411 29.5044  L 19.7478 23  L 13.2411 16.4956  L 16.4956 13.2411  Z " fill-rule="nonzero" fill="#f46363" stroke="none" transform="matrix(1 0 0 1 165 104 )" />
  </g>
</svg>