<?xml version="1.0" encoding="utf-8"?>
<svg version="1.1" xmlns:xlink="http://www.w3.org/1999/xlink" width="364px" height="120px" xmlns="http://www.w3.org/2000/svg">
  <defs>
    <filter x="6px" y="307px" width="364px" height="120px" filterUnits="userSpaceOnUse" id="filter40">
      <feOffset dx="0" dy="0" in="SourceAlpha" result="shadowOffsetInner" />
      <feGaussianBlur stdDeviation="5" in="shadowOffsetInner" result="shadowGaussian" />
      <feComposite in2="shadowGaussian" operator="atop" in="SourceAlpha" result="shadowComposite" />
      <feColorMatrix type="matrix" values="0 0 0 0 0.949019607843137  0 0 0 0 0.949019607843137  0 0 0 0 0.949019607843137  0 0 0 1 0  " in="shadowComposite" />
    </filter>
    <g id="widget41">
      <path d="M 17 321  A 3 3 0 0 1 20 318 L 356 318  A 3 3 0 0 1 359 321 L 359 413  A 3 3 0 0 1 356 416 L 20 416  A 3 3 0 0 1 17 413 L 17 321  Z " fill-rule="nonzero" fill="#ffffff" stroke="none" />
      <path d="M 16.5 321  A 3.5 3.5 0 0 1 20 317.5 L 356 317.5  A 3.5 3.5 0 0 1 359.5 321 L 359.5 413  A 3.5 3.5 0 0 1 356 416.5 L 20 416.5  A 3.5 3.5 0 0 1 16.5 413 L 16.5 321  Z " stroke-width="1" stroke="#f2f2f2" fill="none" stroke-opacity="0.996078431372549" />
    </g>
  </defs>
  <g transform="matrix(1 0 0 1 -6 -307 )">
    <use xlink:href="#widget41" filter="url(#filter40)" />
    <use xlink:href="#widget41" />
  </g>
</svg>